<svg width="249" height="21" viewBox="0 0 249 21" fill="none" xmlns="http://www.w3.org/2000/svg">
<path d="M0 3C0 1.34315 1.34315 0 3 0H221V21H3C1.34315 21 0 19.6569 0 18V3Z" fill="url(#paint0_linear_1031_2)"/>
<g filter="url(#filter0_d_1031_2)">
<path d="M12.2676 6.35938H11.0254V5.2168H12.2676V6.35938ZM12.1973 14H11.0957V7.45508H12.1973V14ZM19.8496 14H18.748V10.2734C18.748 9.97266 18.7305 9.69141 18.6953 9.42969C18.6602 9.16406 18.5957 8.95703 18.502 8.80859C18.4043 8.64453 18.2637 8.52344 18.0801 8.44531C17.8965 8.36328 17.6582 8.32227 17.3652 8.32227C17.0645 8.32227 16.75 8.39648 16.4219 8.54492C16.0938 8.69336 15.7793 8.88281 15.4785 9.11328V14H14.377V7.45508H15.4785V8.18164C15.8223 7.89648 16.1777 7.67383 16.5449 7.51367C16.9121 7.35352 17.2891 7.27344 17.6758 7.27344C18.3828 7.27344 18.9219 7.48633 19.293 7.91211C19.6641 8.33789 19.8496 8.95117 19.8496 9.75195V14ZM25.4922 5.94922H25.4336C25.3125 5.91406 25.1543 5.87891 24.959 5.84375C24.7637 5.80469 24.5918 5.78516 24.4434 5.78516C23.9707 5.78516 23.627 5.89062 23.4121 6.10156C23.2012 6.30859 23.0957 6.68555 23.0957 7.23242V7.45508H25.082V8.38086H23.1309V14H22.0293V8.38086H21.2852V7.45508H22.0293V7.23828C22.0293 6.46094 22.2227 5.86523 22.6094 5.45117C22.9961 5.0332 23.5547 4.82422 24.2852 4.82422C24.5312 4.82422 24.752 4.83594 24.9473 4.85938C25.1465 4.88281 25.3281 4.91016 25.4922 4.94141V5.94922ZM31.7676 10.7305C31.7676 11.7969 31.4941 12.6387 30.9473 13.2559C30.4004 13.873 29.668 14.1816 28.75 14.1816C27.8242 14.1816 27.0879 13.873 26.541 13.2559C25.998 12.6387 25.7266 11.7969 25.7266 10.7305C25.7266 9.66406 25.998 8.82227 26.541 8.20508C27.0879 7.58398 27.8242 7.27344 28.75 7.27344C29.668 7.27344 30.4004 7.58398 30.9473 8.20508C31.4941 8.82227 31.7676 9.66406 31.7676 10.7305ZM30.6309 10.7305C30.6309 9.88281 30.4648 9.25391 30.1328 8.84375C29.8008 8.42969 29.3398 8.22266 28.75 8.22266C28.1523 8.22266 27.6875 8.42969 27.3555 8.84375C27.0273 9.25391 26.8633 9.88281 26.8633 10.7305C26.8633 11.5508 27.0293 12.1738 27.3613 12.5996C27.6934 13.0215 28.1562 13.2324 28.75 13.2324C29.3359 13.2324 29.7949 13.0234 30.127 12.6055C30.4629 12.1836 30.6309 11.5586 30.6309 10.7305ZM37.5625 8.65625H37.5039C37.3398 8.61719 37.1797 8.58984 37.0234 8.57422C36.8711 8.55469 36.6895 8.54492 36.4785 8.54492C36.1387 8.54492 35.8105 8.62109 35.4941 8.77344C35.1777 8.92188 34.873 9.11523 34.5801 9.35352V14H33.4785V7.45508H34.5801V8.42188C35.0176 8.07031 35.4023 7.82227 35.7344 7.67773C36.0703 7.5293 36.4121 7.45508 36.7598 7.45508C36.9512 7.45508 37.0898 7.46094 37.1758 7.47266C37.2617 7.48047 37.3906 7.49805 37.5625 7.52539V8.65625ZM48.1504 14H47.0488V10.2734C47.0488 9.99219 47.0352 9.7207 47.0078 9.45898C46.9844 9.19727 46.9316 8.98828 46.8496 8.83203C46.7598 8.66406 46.6309 8.53711 46.4629 8.45117C46.2949 8.36523 46.0527 8.32227 45.7363 8.32227C45.4277 8.32227 45.1191 8.40039 44.8105 8.55664C44.502 8.70898 44.1934 8.9043 43.8848 9.14258C43.8965 9.23242 43.9062 9.33789 43.9141 9.45898C43.9219 9.57617 43.9258 9.69336 43.9258 9.81055V14H42.8242V10.2734C42.8242 9.98438 42.8105 9.71094 42.7832 9.45312C42.7598 9.19141 42.707 8.98242 42.625 8.82617C42.5352 8.6582 42.4062 8.5332 42.2383 8.45117C42.0703 8.36523 41.8281 8.32227 41.5117 8.32227C41.2109 8.32227 40.9082 8.39648 40.6035 8.54492C40.3027 8.69336 40.002 8.88281 39.7012 9.11328V14H38.5996V7.45508H39.7012V8.18164C40.0449 7.89648 40.3867 7.67383 40.7266 7.51367C41.0703 7.35352 41.4355 7.27344 41.8223 7.27344C42.2676 7.27344 42.6445 7.36719 42.9531 7.55469C43.2656 7.74219 43.498 8.00195 43.6504 8.33398C44.0957 7.95898 44.502 7.68945 44.8691 7.52539C45.2363 7.35742 45.6289 7.27344 46.0469 7.27344C46.7656 7.27344 47.2949 7.49219 47.6348 7.92969C47.9785 8.36328 48.1504 8.9707 48.1504 9.75195V14ZM55.3574 14H54.2617V13.3027C54.1641 13.3691 54.0312 13.4629 53.8633 13.584C53.6992 13.7012 53.5391 13.7949 53.3828 13.8652C53.1992 13.9551 52.9883 14.0293 52.75 14.0879C52.5117 14.1504 52.2324 14.1816 51.9121 14.1816C51.3223 14.1816 50.8223 13.9863 50.4121 13.5957C50.002 13.2051 49.7969 12.707 49.7969 12.1016C49.7969 11.6055 49.9023 11.2051 50.1133 10.9004C50.3281 10.5918 50.6328 10.3496 51.0273 10.1738C51.4258 9.99805 51.9043 9.87891 52.4629 9.81641C53.0215 9.75391 53.6211 9.70703 54.2617 9.67578V9.50586C54.2617 9.25586 54.2168 9.04883 54.127 8.88477C54.041 8.7207 53.916 8.5918 53.752 8.49805C53.5957 8.4082 53.4082 8.34766 53.1895 8.31641C52.9707 8.28516 52.7422 8.26953 52.5039 8.26953C52.2148 8.26953 51.8926 8.30859 51.5371 8.38672C51.1816 8.46094 50.8145 8.57031 50.4355 8.71484H50.377V7.5957C50.5918 7.53711 50.9023 7.47266 51.3086 7.40234C51.7148 7.33203 52.1152 7.29688 52.5098 7.29688C52.9707 7.29688 53.3711 7.33594 53.7109 7.41406C54.0547 7.48828 54.3516 7.61719 54.6016 7.80078C54.8477 7.98047 55.0352 8.21289 55.1641 8.49805C55.293 8.7832 55.3574 9.13672 55.3574 9.55859V14ZM54.2617 12.3887V10.5664C53.9258 10.5859 53.5293 10.6152 53.0723 10.6543C52.6191 10.6934 52.2598 10.75 51.9941 10.8242C51.6777 10.9141 51.4219 11.0547 51.2266 11.2461C51.0312 11.4336 50.9336 11.6934 50.9336 12.0254C50.9336 12.4004 51.0469 12.6836 51.2734 12.875C51.5 13.0625 51.8457 13.1562 52.3105 13.1562C52.6973 13.1562 53.0508 13.082 53.3711 12.9336C53.6914 12.7812 53.9883 12.5996 54.2617 12.3887ZM60.877 13.9414C60.6699 13.9961 60.4434 14.041 60.1973 14.0762C59.9551 14.1113 59.7383 14.1289 59.5469 14.1289C58.8789 14.1289 58.3711 13.9492 58.0234 13.5898C57.6758 13.2305 57.502 12.6543 57.502 11.8613V8.38086H56.7578V7.45508H57.502V5.57422H58.6035V7.45508H60.877V8.38086H58.6035V11.3633C58.6035 11.707 58.6113 11.9766 58.627 12.1719C58.6426 12.3633 58.6973 12.543 58.791 12.7109C58.877 12.8672 58.9941 12.9824 59.1426 13.0566C59.2949 13.127 59.5254 13.1621 59.834 13.1621C60.0137 13.1621 60.2012 13.1367 60.3965 13.0859C60.5918 13.0312 60.7324 12.9863 60.8184 12.9512H60.877V13.9414ZM63.3965 6.35938H62.1543V5.2168H63.3965V6.35938ZM63.3262 14H62.2246V7.45508H63.3262V14ZM71.084 10.7305C71.084 11.7969 70.8105 12.6387 70.2637 13.2559C69.7168 13.873 68.9844 14.1816 68.0664 14.1816C67.1406 14.1816 66.4043 13.873 65.8574 13.2559C65.3145 12.6387 65.043 11.7969 65.043 10.7305C65.043 9.66406 65.3145 8.82227 65.8574 8.20508C66.4043 7.58398 67.1406 7.27344 68.0664 7.27344C68.9844 7.27344 69.7168 7.58398 70.2637 8.20508C70.8105 8.82227 71.084 9.66406 71.084 10.7305ZM69.9473 10.7305C69.9473 9.88281 69.7812 9.25391 69.4492 8.84375C69.1172 8.42969 68.6562 8.22266 68.0664 8.22266C67.4688 8.22266 67.0039 8.42969 66.6719 8.84375C66.3438 9.25391 66.1797 9.88281 66.1797 10.7305C66.1797 11.5508 66.3457 12.1738 66.6777 12.5996C67.0098 13.0215 67.4727 13.2324 68.0664 13.2324C68.6523 13.2324 69.1113 13.0234 69.4434 12.6055C69.7793 12.1836 69.9473 11.5586 69.9473 10.7305ZM78.2676 14H77.166V10.2734C77.166 9.97266 77.1484 9.69141 77.1133 9.42969C77.0781 9.16406 77.0137 8.95703 76.9199 8.80859C76.8223 8.64453 76.6816 8.52344 76.498 8.44531C76.3145 8.36328 76.0762 8.32227 75.7832 8.32227C75.4824 8.32227 75.168 8.39648 74.8398 8.54492C74.5117 8.69336 74.1973 8.88281 73.8965 9.11328V14H72.7949V7.45508H73.8965V8.18164C74.2402 7.89648 74.5957 7.67383 74.9629 7.51367C75.3301 7.35352 75.707 7.27344 76.0938 7.27344C76.8008 7.27344 77.3398 7.48633 77.7109 7.91211C78.082 8.33789 78.2676 8.95117 78.2676 9.75195V14ZM89.6934 14H88.5977V13.3027C88.5 13.3691 88.3672 13.4629 88.1992 13.584C88.0352 13.7012 87.875 13.7949 87.7188 13.8652C87.5352 13.9551 87.3242 14.0293 87.0859 14.0879C86.8477 14.1504 86.5684 14.1816 86.248 14.1816C85.6582 14.1816 85.1582 13.9863 84.748 13.5957C84.3379 13.2051 84.1328 12.707 84.1328 12.1016C84.1328 11.6055 84.2383 11.2051 84.4492 10.9004C84.6641 10.5918 84.9688 10.3496 85.3633 10.1738C85.7617 9.99805 86.2402 9.87891 86.7988 9.81641C87.3574 9.75391 87.957 9.70703 88.5977 9.67578V9.50586C88.5977 9.25586 88.5527 9.04883 88.4629 8.88477C88.377 8.7207 88.252 8.5918 88.0879 8.49805C87.9316 8.4082 87.7441 8.34766 87.5254 8.31641C87.3066 8.28516 87.0781 8.26953 86.8398 8.26953C86.5508 8.26953 86.2285 8.30859 85.873 8.38672C85.5176 8.46094 85.1504 8.57031 84.7715 8.71484H84.7129V7.5957C84.9277 7.53711 85.2383 7.47266 85.6445 7.40234C86.0508 7.33203 86.4512 7.29688 86.8457 7.29688C87.3066 7.29688 87.707 7.33594 88.0469 7.41406C88.3906 7.48828 88.6875 7.61719 88.9375 7.80078C89.1836 7.98047 89.3711 8.21289 89.5 8.49805C89.6289 8.7832 89.6934 9.13672 89.6934 9.55859V14ZM88.5977 12.3887V10.5664C88.2617 10.5859 87.8652 10.6152 87.4082 10.6543C86.9551 10.6934 86.5957 10.75 86.3301 10.8242C86.0137 10.9141 85.7578 11.0547 85.5625 11.2461C85.3672 11.4336 85.2695 11.6934 85.2695 12.0254C85.2695 12.4004 85.3828 12.6836 85.6094 12.875C85.8359 13.0625 86.1816 13.1562 86.6465 13.1562C87.0332 13.1562 87.3867 13.082 87.707 12.9336C88.0273 12.7812 88.3242 12.5996 88.5977 12.3887ZM97.2871 14H96.1855V10.2734C96.1855 9.97266 96.168 9.69141 96.1328 9.42969C96.0977 9.16406 96.0332 8.95703 95.9395 8.80859C95.8418 8.64453 95.7012 8.52344 95.5176 8.44531C95.334 8.36328 95.0957 8.32227 94.8027 8.32227C94.502 8.32227 94.1875 8.39648 93.8594 8.54492C93.5312 8.69336 93.2168 8.88281 92.916 9.11328V14H91.8145V7.45508H92.916V8.18164C93.2598 7.89648 93.6152 7.67383 93.9824 7.51367C94.3496 7.35352 94.7266 7.27344 95.1133 7.27344C95.8203 7.27344 96.3594 7.48633 96.7305 7.91211C97.1016 8.33789 97.2871 8.95117 97.2871 9.75195V14ZM104.717 14H103.615V13.3145C103.299 13.5879 102.969 13.8008 102.625 13.9531C102.281 14.1055 101.908 14.1816 101.506 14.1816C100.725 14.1816 100.104 13.8809 99.6426 13.2793C99.1855 12.6777 98.957 11.8438 98.957 10.7773C98.957 10.2227 99.0352 9.72852 99.1914 9.29492C99.3516 8.86133 99.5664 8.49219 99.8359 8.1875C100.102 7.89062 100.41 7.66406 100.762 7.50781C101.117 7.35156 101.484 7.27344 101.863 7.27344C102.207 7.27344 102.512 7.31055 102.777 7.38477C103.043 7.45508 103.322 7.56641 103.615 7.71875V4.88281H104.717V14ZM103.615 12.3887V8.63281C103.318 8.5 103.053 8.4082 102.818 8.35742C102.584 8.30664 102.328 8.28125 102.051 8.28125C101.434 8.28125 100.953 8.49609 100.609 8.92578C100.266 9.35547 100.094 9.96484 100.094 10.7539C100.094 11.5312 100.227 12.123 100.492 12.5293C100.758 12.9316 101.184 13.1328 101.77 13.1328C102.082 13.1328 102.398 13.0645 102.719 12.9277C103.039 12.7871 103.338 12.6074 103.615 12.3887ZM116.576 14H115.475V10.2734C115.475 9.97266 115.457 9.69141 115.422 9.42969C115.387 9.16406 115.322 8.95703 115.229 8.80859C115.131 8.64453 114.99 8.52344 114.807 8.44531C114.623 8.36328 114.385 8.32227 114.092 8.32227C113.791 8.32227 113.477 8.39648 113.148 8.54492C112.82 8.69336 112.506 8.88281 112.205 9.11328V14H111.104V7.45508H112.205V8.18164C112.549 7.89648 112.904 7.67383 113.271 7.51367C113.639 7.35352 114.016 7.27344 114.402 7.27344C115.109 7.27344 115.648 7.48633 116.02 7.91211C116.391 8.33789 116.576 8.95117 116.576 9.75195V14ZM124.176 10.8418H119.354C119.354 11.2441 119.414 11.5957 119.535 11.8965C119.656 12.1934 119.822 12.4375 120.033 12.6289C120.236 12.8164 120.477 12.957 120.754 13.0508C121.035 13.1445 121.344 13.1914 121.68 13.1914C122.125 13.1914 122.572 13.1035 123.021 12.9277C123.475 12.748 123.797 12.5723 123.988 12.4004H124.047V13.6016C123.676 13.7578 123.297 13.8887 122.91 13.9941C122.523 14.0996 122.117 14.1523 121.691 14.1523C120.605 14.1523 119.758 13.8594 119.148 13.2734C118.539 12.6836 118.234 11.8477 118.234 10.7656C118.234 9.69531 118.525 8.8457 119.107 8.2168C119.693 7.58789 120.463 7.27344 121.416 7.27344C122.299 7.27344 122.979 7.53125 123.455 8.04688C123.936 8.5625 124.176 9.29492 124.176 10.2441V10.8418ZM123.104 9.99805C123.1 9.41992 122.953 8.97266 122.664 8.65625C122.379 8.33984 121.943 8.18164 121.357 8.18164C120.768 8.18164 120.297 8.35547 119.945 8.70312C119.598 9.05078 119.4 9.48242 119.354 9.99805H123.104ZM129.244 13.9414C129.037 13.9961 128.811 14.041 128.564 14.0762C128.322 14.1113 128.105 14.1289 127.914 14.1289C127.246 14.1289 126.738 13.9492 126.391 13.5898C126.043 13.2305 125.869 12.6543 125.869 11.8613V8.38086H125.125V7.45508H125.869V5.57422H126.971V7.45508H129.244V8.38086H126.971V11.3633C126.971 11.707 126.979 11.9766 126.994 12.1719C127.01 12.3633 127.064 12.543 127.158 12.7109C127.244 12.8672 127.361 12.9824 127.51 13.0566C127.662 13.127 127.893 13.1621 128.201 13.1621C128.381 13.1621 128.568 13.1367 128.764 13.0859C128.959 13.0312 129.1 12.9863 129.186 12.9512H129.244V13.9414ZM138.812 7.45508L137.107 14H136.088L134.406 8.95508L132.736 14H131.723L130 7.45508H131.148L132.35 12.5234L133.984 7.45508H134.893L136.568 12.5234L137.705 7.45508H138.812ZM145.979 10.7305C145.979 11.7969 145.705 12.6387 145.158 13.2559C144.611 13.873 143.879 14.1816 142.961 14.1816C142.035 14.1816 141.299 13.873 140.752 13.2559C140.209 12.6387 139.938 11.7969 139.938 10.7305C139.938 9.66406 140.209 8.82227 140.752 8.20508C141.299 7.58398 142.035 7.27344 142.961 7.27344C143.879 7.27344 144.611 7.58398 145.158 8.20508C145.705 8.82227 145.979 9.66406 145.979 10.7305ZM144.842 10.7305C144.842 9.88281 144.676 9.25391 144.344 8.84375C144.012 8.42969 143.551 8.22266 142.961 8.22266C142.363 8.22266 141.898 8.42969 141.566 8.84375C141.238 9.25391 141.074 9.88281 141.074 10.7305C141.074 11.5508 141.24 12.1738 141.572 12.5996C141.904 13.0215 142.367 13.2324 142.961 13.2324C143.547 13.2324 144.006 13.0234 144.338 12.6055C144.674 12.1836 144.842 11.5586 144.842 10.7305ZM151.773 8.65625H151.715C151.551 8.61719 151.391 8.58984 151.234 8.57422C151.082 8.55469 150.9 8.54492 150.689 8.54492C150.35 8.54492 150.021 8.62109 149.705 8.77344C149.389 8.92188 149.084 9.11523 148.791 9.35352V14H147.689V7.45508H148.791V8.42188C149.229 8.07031 149.613 7.82227 149.945 7.67773C150.281 7.5293 150.623 7.45508 150.971 7.45508C151.162 7.45508 151.301 7.46094 151.387 7.47266C151.473 7.48047 151.602 7.49805 151.773 7.52539V8.65625ZM158.752 14H157.299L154.674 11.1348L153.959 11.8145V14H152.857V4.88281H153.959V10.7305L157.141 7.45508H158.529L155.488 10.4785L158.752 14ZM168.807 12.1133C168.807 12.7109 168.559 13.2012 168.062 13.584C167.57 13.9668 166.896 14.1582 166.041 14.1582C165.557 14.1582 165.111 14.1016 164.705 13.9883C164.303 13.8711 163.965 13.7441 163.691 13.6074V12.3711H163.75C164.098 12.6328 164.484 12.8418 164.91 12.998C165.336 13.1504 165.744 13.2266 166.135 13.2266C166.619 13.2266 166.998 13.1484 167.271 12.9922C167.545 12.8359 167.682 12.5898 167.682 12.2539C167.682 11.9961 167.607 11.8008 167.459 11.668C167.311 11.5352 167.025 11.4219 166.604 11.3281C166.447 11.293 166.242 11.252 165.988 11.2051C165.738 11.1582 165.51 11.1074 165.303 11.0527C164.729 10.9004 164.32 10.6777 164.078 10.3848C163.84 10.0879 163.721 9.72461 163.721 9.29492C163.721 9.02539 163.775 8.77148 163.885 8.5332C163.998 8.29492 164.168 8.08203 164.395 7.89453C164.613 7.71094 164.891 7.56641 165.227 7.46094C165.566 7.35156 165.945 7.29688 166.363 7.29688C166.754 7.29688 167.148 7.3457 167.547 7.44336C167.949 7.53711 168.283 7.65234 168.549 7.78906V8.9668H168.49C168.209 8.75977 167.867 8.58594 167.465 8.44531C167.062 8.30078 166.668 8.22852 166.281 8.22852C165.879 8.22852 165.539 8.30664 165.262 8.46289C164.984 8.61523 164.846 8.84375 164.846 9.14844C164.846 9.41797 164.93 9.62109 165.098 9.75781C165.262 9.89453 165.527 10.0059 165.895 10.0918C166.098 10.1387 166.324 10.1855 166.574 10.2324C166.828 10.2793 167.039 10.3223 167.207 10.3613C167.719 10.4785 168.113 10.6797 168.391 10.9648C168.668 11.2539 168.807 11.6367 168.807 12.1133ZM175.867 10.8418H171.045C171.045 11.2441 171.105 11.5957 171.227 11.8965C171.348 12.1934 171.514 12.4375 171.725 12.6289C171.928 12.8164 172.168 12.957 172.445 13.0508C172.727 13.1445 173.035 13.1914 173.371 13.1914C173.816 13.1914 174.264 13.1035 174.713 12.9277C175.166 12.748 175.488 12.5723 175.68 12.4004H175.738V13.6016C175.367 13.7578 174.988 13.8887 174.602 13.9941C174.215 14.0996 173.809 14.1523 173.383 14.1523C172.297 14.1523 171.449 13.8594 170.84 13.2734C170.23 12.6836 169.926 11.8477 169.926 10.7656C169.926 9.69531 170.217 8.8457 170.799 8.2168C171.385 7.58789 172.154 7.27344 173.107 7.27344C173.99 7.27344 174.67 7.53125 175.146 8.04688C175.627 8.5625 175.867 9.29492 175.867 10.2441V10.8418ZM174.795 9.99805C174.791 9.41992 174.645 8.97266 174.355 8.65625C174.07 8.33984 173.635 8.18164 173.049 8.18164C172.459 8.18164 171.988 8.35547 171.637 8.70312C171.289 9.05078 171.092 9.48242 171.045 9.99805H174.795ZM182.377 13.5898C182.01 13.7656 181.66 13.9023 181.328 14C181 14.0977 180.65 14.1465 180.279 14.1465C179.807 14.1465 179.373 14.0781 178.979 13.9414C178.584 13.8008 178.246 13.5898 177.965 13.3086C177.68 13.0273 177.459 12.6719 177.303 12.2422C177.146 11.8125 177.068 11.3105 177.068 10.7363C177.068 9.66602 177.361 8.82617 177.947 8.2168C178.537 7.60742 179.314 7.30273 180.279 7.30273C180.654 7.30273 181.021 7.35547 181.381 7.46094C181.744 7.56641 182.076 7.69531 182.377 7.84766V9.07227H182.318C181.982 8.81055 181.635 8.60938 181.275 8.46875C180.92 8.32812 180.572 8.25781 180.232 8.25781C179.607 8.25781 179.113 8.46875 178.75 8.89062C178.391 9.30859 178.211 9.92383 178.211 10.7363C178.211 11.5254 178.387 12.1328 178.738 12.5586C179.094 12.9805 179.592 13.1914 180.232 13.1914C180.455 13.1914 180.682 13.1621 180.912 13.1035C181.143 13.0449 181.35 12.9688 181.533 12.875C181.693 12.793 181.844 12.707 181.984 12.6172C182.125 12.5234 182.236 12.4434 182.318 12.377H182.377V13.5898ZM189.221 14H188.119V13.2734C187.748 13.5664 187.393 13.791 187.053 13.9473C186.713 14.1035 186.338 14.1816 185.928 14.1816C185.24 14.1816 184.705 13.9727 184.322 13.5547C183.939 13.1328 183.748 12.5156 183.748 11.7031V7.45508H184.85V11.1816C184.85 11.5137 184.865 11.7988 184.896 12.0371C184.928 12.2715 184.994 12.4727 185.096 12.6406C185.201 12.8125 185.338 12.9375 185.506 13.0156C185.674 13.0938 185.918 13.1328 186.238 13.1328C186.523 13.1328 186.834 13.0586 187.17 12.9102C187.51 12.7617 187.826 12.5723 188.119 12.3418V7.45508H189.221V14ZM195.473 8.65625H195.414C195.25 8.61719 195.09 8.58984 194.934 8.57422C194.781 8.55469 194.6 8.54492 194.389 8.54492C194.049 8.54492 193.721 8.62109 193.404 8.77344C193.088 8.92188 192.783 9.11523 192.49 9.35352V14H191.389V7.45508H192.49V8.42188C192.928 8.07031 193.312 7.82227 193.645 7.67773C193.98 7.5293 194.322 7.45508 194.67 7.45508C194.861 7.45508 195 7.46094 195.086 7.47266C195.172 7.48047 195.301 7.49805 195.473 7.52539V8.65625ZM197.693 6.35938H196.451V5.2168H197.693V6.35938ZM197.623 14H196.521V7.45508H197.623V14ZM203.201 13.9414C202.994 13.9961 202.768 14.041 202.521 14.0762C202.279 14.1113 202.062 14.1289 201.871 14.1289C201.203 14.1289 200.695 13.9492 200.348 13.5898C200 13.2305 199.826 12.6543 199.826 11.8613V8.38086H199.082V7.45508H199.826V5.57422H200.928V7.45508H203.201V8.38086H200.928V11.3633C200.928 11.707 200.936 11.9766 200.951 12.1719C200.967 12.3633 201.021 12.543 201.115 12.7109C201.201 12.8672 201.318 12.9824 201.467 13.0566C201.619 13.127 201.85 13.1621 202.158 13.1621C202.338 13.1621 202.525 13.1367 202.721 13.0859C202.916 13.0312 203.057 12.9863 203.143 12.9512H203.201V13.9414ZM210.139 7.45508L206.318 16.4141H205.141L206.359 13.6836L203.752 7.45508H204.947L206.957 12.3066L208.984 7.45508H210.139Z" fill="white"/>
</g>
<path d="M221 0H246C247.657 0 249 1.34315 249 3V18C249 19.6569 247.657 21 246 21H221V0Z" fill="url(#paint1_linear_1031_2)"/>
<g filter="url(#filter1_d_1031_2)">
<path d="M237.779 11.2285C237.779 11.6348 237.705 12.0234 237.557 12.3945C237.408 12.7656 237.205 13.0781 236.947 13.332C236.666 13.6055 236.33 13.8164 235.939 13.9648C235.553 14.1094 235.104 14.1816 234.592 14.1816C234.115 14.1816 233.656 14.1309 233.215 14.0293C232.773 13.9316 232.4 13.8125 232.096 13.6719V12.4355H232.178C232.498 12.6387 232.873 12.8125 233.303 12.957C233.732 13.0977 234.154 13.168 234.568 13.168C234.846 13.168 235.113 13.1289 235.371 13.0508C235.633 12.9727 235.865 12.8359 236.068 12.6406C236.24 12.4727 236.369 12.2715 236.455 12.0371C236.545 11.8027 236.59 11.5312 236.59 11.2227C236.59 10.9219 236.537 10.668 236.432 10.4609C236.33 10.2539 236.188 10.0879 236.004 9.96289C235.801 9.81445 235.553 9.71094 235.26 9.65234C234.971 9.58984 234.646 9.55859 234.287 9.55859C233.943 9.55859 233.611 9.58203 233.291 9.62891C232.975 9.67578 232.701 9.72266 232.471 9.76953V5.27539H237.721V6.30078H233.602V8.62109C233.77 8.60547 233.941 8.59375 234.117 8.58594C234.293 8.57812 234.445 8.57422 234.574 8.57422C235.047 8.57422 235.461 8.61523 235.816 8.69727C236.172 8.77539 236.498 8.91602 236.795 9.11914C237.107 9.33398 237.35 9.61133 237.521 9.95117C237.693 10.291 237.779 10.7168 237.779 11.2285Z" fill="white"/>
</g>
<defs>
<filter id="filter0_d_1031_2" x="11.0254" y="4.82422" width="199.113" height="12.5898" filterUnits="userSpaceOnUse" color-interpolation-filters="sRGB">
<feFlood flood-opacity="0" result="BackgroundImageFix"/>
<feColorMatrix in="SourceAlpha" type="matrix" values="0 0 0 0 0 0 0 0 0 0 0 0 0 0 0 0 0 0 127 0" result="hardAlpha"/>
<feOffset dy="1"/>
<feComposite in2="hardAlpha" operator="out"/>
<feColorMatrix type="matrix" values="0 0 0 0 0 0 0 0 0 0 0 0 0 0 0 0 0 0 0.25 0"/>
<feBlend mode="normal" in2="BackgroundImageFix" result="effect1_dropShadow_1031_2"/>
<feBlend mode="normal" in="SourceGraphic" in2="effect1_dropShadow_1031_2" result="shape"/>
</filter>
<filter id="filter1_d_1031_2" x="232.096" y="5.27539" width="5.68359" height="9.90625" filterUnits="userSpaceOnUse" color-interpolation-filters="sRGB">
<feFlood flood-opacity="0" result="BackgroundImageFix"/>
<feColorMatrix in="SourceAlpha" type="matrix" values="0 0 0 0 0 0 0 0 0 0 0 0 0 0 0 0 0 0 127 0" result="hardAlpha"/>
<feOffset dy="1"/>
<feComposite in2="hardAlpha" operator="out"/>
<feColorMatrix type="matrix" values="0 0 0 0 0 0 0 0 0 0 0 0 0 0 0 0 0 0 0.25 0"/>
<feBlend mode="normal" in2="BackgroundImageFix" result="effect1_dropShadow_1031_2"/>
<feBlend mode="normal" in="SourceGraphic" in2="effect1_dropShadow_1031_2" result="shape"/>
</filter>
<linearGradient id="paint0_linear_1031_2" x1="110.5" y1="0" x2="110.5" y2="21" gradientUnits="userSpaceOnUse">
<stop stop-color="#5F5F5F"/>
<stop offset="1" stop-color="#4D4D4D"/>
</linearGradient>
<linearGradient id="paint1_linear_1031_2" x1="235" y1="0" x2="235" y2="21" gradientUnits="userSpaceOnUse">
<stop stop-color="#E0BB3B"/>
<stop offset="1" stop-color="#D4AF37"/>
</linearGradient>
</defs>
</svg>
